<?xml version="1.0" encoding="UTF-8" standalone="no"?>
<svg width="166px" height="47px" viewBox="0 0 166 47" version="1.1" xmlns="http://www.w3.org/2000/svg" xmlns:xlink="http://www.w3.org/1999/xlink" xmlns:sketch="http://www.bohemiancoding.com/sketch/ns">
    <!-- Generator: Sketch 3.4.4 (17249) - http://www.bohemiancoding.com/sketch -->
    <title>Untitled</title>
    <desc>Created with Sketch.</desc>
    <defs></defs>
    <g id="Page-1" stroke="none" stroke-width="1" fill="none" fill-rule="evenodd" sketch:type="MSPage">
        <g id="MAS_Download_165x40" sketch:type="MSLayerGroup" transform="translate(0.000000, 7.000000)">
            <g id="Group" sketch:type="MSShapeGroup">
                <path d="M160.271,39.989 L4.729,39.989 C2.122,39.989 0,37.872 0,35.268 L0,4.727 C0,2.12 2.122,0 4.729,0 L160.271,0 C162.875,0 165,2.12 165,4.727 L165,35.268 C165.001,37.872 162.876,39.989 160.271,39.989 L160.271,39.989 L160.271,39.989 Z" id="Shape" fill="#A6A6A6"></path>
                <path d="M164.105,35.268 C164.105,37.384 162.391,39.098 160.271,39.098 L4.729,39.098 C2.61,39.098 0.89,37.384 0.89,35.268 L0.89,4.725 C0.89,2.61 2.61,0.891 4.729,0.891 L160.271,0.891 C162.392,0.891 164.105,2.61 164.105,4.725 L164.105,35.268 L164.105,35.268 L164.105,35.268 Z" id="Shape" fill="#000000"></path>
                <g transform="translate(12.000000, 6.000000)" id="Shape" fill="#FFFFFF">
                    <path d="M18.497,13.763 C18.467,10.54 21.192,8.971 21.316,8.899 C19.773,6.695 17.381,6.393 16.542,6.37 C14.532,6.164 12.584,7.548 11.561,7.548 C10.518,7.548 8.941,6.391 7.244,6.426 C5.059,6.459 3.014,7.697 1.892,9.621 C-0.422,13.544 1.304,19.311 3.52,22.48 C4.629,24.035 5.925,25.767 7.621,25.706 C9.281,25.64 9.9,24.671 11.904,24.671 C13.888,24.671 14.47,25.706 16.2,25.667 C17.98,25.64 19.103,24.108 20.173,22.54 C21.455,20.76 21.969,19.008 21.99,18.917 C21.948,18.902 18.532,17.627 18.497,13.763 L18.497,13.763 Z"></path>
                    <path d="M15.229,4.285 C16.121,3.191 16.731,1.705 16.562,0.196 C15.27,0.251 13.654,1.07 12.724,2.14 C11.901,3.081 11.166,4.626 11.356,6.078 C12.807,6.184 14.297,5.361 15.229,4.285 L15.229,4.285 Z"></path>
                </g>
                <g transform="translate(42.000000, 18.000000)" id="Shape" fill="#FFFFFF">
                    <path d="M13.653,13.496 L11.693,13.496 L11.431,8.232 C11.306,5.855 11.251,4.087 11.263,2.931 L11.207,2.931 C10.809,4.412 10.317,5.998 9.732,7.691 L7.772,13.384 L6.241,13.384 L4.449,7.784 C3.914,6.091 3.478,4.473 3.142,2.93 L3.104,2.93 C3.042,4.821 2.967,6.62 2.88,8.325 L2.581,13.495 L0.696,13.495 L1.536,0.913 L4.131,0.913 L5.942,6.364 C6.39,7.708 6.782,9.153 7.118,10.696 L7.174,10.696 C7.572,9.091 7.995,7.647 8.443,6.364 L10.329,0.913 L12.924,0.913 L13.653,13.496 L13.653,13.496 Z"></path>
                    <path d="M22.483,13.496 L20.672,13.496 L20.523,12.451 L20.467,12.451 C19.844,13.285 18.961,13.701 17.816,13.701 C16.957,13.701 16.267,13.428 15.744,12.881 C15.271,12.383 15.035,11.768 15.035,11.033 C15.035,9.926 15.498,9.078 16.426,8.494 C17.353,7.908 18.656,7.623 20.337,7.635 L20.337,7.467 C20.337,6.272 19.71,5.676 18.456,5.676 C17.561,5.676 16.773,5.899 16.09,6.348 L15.679,5.022 C16.524,4.499 17.562,4.239 18.792,4.239 C21.165,4.239 22.352,5.489 22.352,7.991 L22.352,11.333 C22.352,12.24 22.396,12.961 22.483,13.496 L22.483,13.496 Z M20.392,10.379 L20.392,8.979 C18.164,8.942 17.051,9.551 17.051,10.809 C17.051,11.282 17.18,11.637 17.441,11.873 C17.701,12.109 18.028,12.227 18.424,12.227 C18.87,12.227 19.281,12.088 19.659,11.807 C20.036,11.528 20.268,11.17 20.355,10.735 C20.379,10.635 20.392,10.516 20.392,10.379 L20.392,10.379 Z"></path>
                    <path d="M30.977,4.666 L30.585,6.197 C30.075,5.949 29.49,5.824 28.83,5.824 C27.946,5.824 27.247,6.119 26.73,6.711 C26.213,7.303 25.956,8.053 25.956,8.961 C25.956,9.918 26.227,10.678 26.768,11.238 C27.309,11.797 27.997,12.078 28.83,12.078 C29.452,12.078 30.062,11.953 30.66,11.705 L30.94,13.217 C30.28,13.528 29.447,13.684 28.439,13.684 C27.058,13.684 25.957,13.264 25.135,12.424 C24.313,11.584 23.903,10.461 23.903,9.055 C23.903,7.649 24.345,6.494 25.229,5.592 C26.112,4.69 27.301,4.238 28.794,4.238 C29.639,4.238 30.367,4.381 30.977,4.666 L30.977,4.666 Z"></path>
                    <path d="M45.872,13.496 L43.726,13.496 L42.549,9.801 L38.462,9.801 L37.342,13.496 L35.25,13.496 L39.301,0.914 L41.802,0.914 L45.872,13.496 L45.872,13.496 Z M42.195,8.252 L41.131,4.965 C41.019,4.629 40.807,3.84 40.496,2.595 L40.458,2.595 C40.333,3.131 40.134,3.92 39.861,4.965 L38.816,8.252 L42.195,8.252 L42.195,8.252 Z"></path>
                    <path d="M56.287,8.848 C56.287,10.393 55.871,11.612 55.037,12.508 C54.291,13.305 53.363,13.701 52.256,13.701 C51.061,13.701 50.203,13.273 49.68,12.414 L49.643,12.414 L49.643,17.193 L47.627,17.193 L47.627,7.41 C47.627,6.439 47.602,5.445 47.551,4.424 L49.324,4.424 L49.437,5.862 L49.474,5.862 C50.146,4.78 51.165,4.239 52.535,4.239 C53.605,4.239 54.498,4.661 55.215,5.509 C55.93,6.354 56.287,7.467 56.287,8.848 L56.287,8.848 Z M54.234,8.924 C54.234,8.039 54.035,7.313 53.636,6.738 C53.2,6.142 52.616,5.843 51.882,5.843 C51.384,5.843 50.933,6.007 50.528,6.337 C50.123,6.667 49.858,7.099 49.735,7.634 C49.673,7.884 49.641,8.089 49.641,8.251 L49.641,9.763 C49.641,10.423 49.842,10.98 50.248,11.433 C50.652,11.888 51.178,12.115 51.824,12.115 C52.584,12.115 53.174,11.822 53.597,11.238 C54.023,10.652 54.234,9.881 54.234,8.924 L54.234,8.924 Z"></path>
                    <path d="M66.723,8.848 C66.723,10.393 66.305,11.612 65.473,12.508 C64.725,13.305 63.799,13.701 62.69,13.701 C61.497,13.701 60.637,13.273 60.116,12.414 L60.077,12.414 L60.077,17.193 L58.061,17.193 L58.061,7.41 C58.061,6.439 58.036,5.445 57.987,4.424 L59.76,4.424 L59.871,5.862 L59.908,5.862 C60.58,4.78 61.601,4.239 62.97,4.239 C64.04,4.239 64.933,4.661 65.648,5.509 C66.365,6.354 66.723,7.467 66.723,8.848 L66.723,8.848 Z M64.67,8.924 C64.67,8.039 64.471,7.313 64.072,6.738 C63.636,6.142 63.051,5.843 62.316,5.843 C61.818,5.843 61.367,6.007 60.962,6.337 C60.557,6.667 60.294,7.099 60.169,7.634 C60.107,7.884 60.075,8.089 60.075,8.251 L60.075,9.763 C60.075,10.423 60.278,10.98 60.682,11.433 C61.086,11.888 61.612,12.115 62.26,12.115 C63.018,12.115 63.61,11.822 64.033,11.238 C64.457,10.652 64.67,9.881 64.67,8.924 L64.67,8.924 Z"></path>
                    <path d="M78.389,9.969 C78.389,11.039 78.016,11.91 77.272,12.582 C76.452,13.316 75.309,13.684 73.844,13.684 C72.49,13.684 71.405,13.422 70.584,12.899 L71.051,11.219 C71.934,11.754 72.906,12.022 73.963,12.022 C74.723,12.022 75.315,11.852 75.738,11.508 C76.161,11.164 76.373,10.707 76.373,10.133 C76.373,9.623 76.199,9.192 75.85,8.844 C75.502,8.494 74.924,8.17 74.114,7.871 C71.913,7.049 70.811,5.846 70.811,4.262 C70.811,3.227 71.196,2.38 71.967,1.72 C72.738,1.059 73.766,0.729 75.047,0.729 C76.193,0.729 77.145,0.928 77.904,1.327 L77.4,2.97 C76.689,2.584 75.886,2.391 74.992,2.391 C74.281,2.391 73.728,2.566 73.33,2.914 C72.994,3.224 72.826,3.605 72.826,4.052 C72.826,4.55 73.019,4.96 73.404,5.284 C73.74,5.583 74.349,5.907 75.234,6.255 C76.316,6.691 77.113,7.2 77.623,7.786 C78.135,8.369 78.389,9.098 78.389,9.969 L78.389,9.969 Z"></path>
                    <path d="M85.053,5.936 L82.83,5.936 L82.83,10.342 C82.83,11.461 83.223,12.022 84.008,12.022 C84.367,12.022 84.666,11.991 84.903,11.928 L84.96,13.459 C84.562,13.609 84.038,13.684 83.392,13.684 C82.595,13.684 81.974,13.442 81.525,12.955 C81.078,12.471 80.853,11.654 80.853,10.51 L80.853,5.936 L79.529,5.936 L79.529,4.424 L80.853,4.424 L80.853,2.763 L82.832,2.165 L82.832,4.423 L85.055,4.423 L85.055,5.936 L85.053,5.936 Z"></path>
                    <path d="M95.076,8.885 C95.076,10.28 94.678,11.424 93.883,12.321 C93.049,13.243 91.942,13.702 90.559,13.702 C89.227,13.702 88.166,13.261 87.377,12.378 C86.586,11.493 86.191,10.38 86.191,9.036 C86.191,7.63 86.597,6.479 87.414,5.583 C88.228,4.687 89.328,4.239 90.709,4.239 C92.041,4.239 93.109,4.68 93.92,5.563 C94.691,6.422 95.076,7.529 95.076,8.885 L95.076,8.885 Z M92.986,8.951 C92.986,8.115 92.804,7.396 92.445,6.799 C92.021,6.074 91.418,5.713 90.634,5.713 C89.823,5.713 89.208,6.074 88.784,6.799 C88.423,7.397 88.243,8.127 88.243,8.988 C88.243,9.824 88.423,10.543 88.784,11.14 C89.22,11.865 89.831,12.226 90.614,12.226 C91.385,12.226 91.989,11.859 92.425,11.122 C92.799,10.512 92.986,9.787 92.986,8.951 L92.986,8.951 Z"></path>
                    <path d="M101.629,6.197 C101.43,6.16 101.219,6.142 100.994,6.142 C100.285,6.142 99.736,6.41 99.351,6.943 C99.015,7.418 98.847,8.015 98.847,8.736 L98.847,13.496 L96.831,13.496 L96.849,7.281 C96.849,6.234 96.824,5.283 96.775,4.424 L98.529,4.424 L98.605,6.16 L98.66,6.16 C98.873,5.562 99.209,5.084 99.668,4.722 C100.117,4.4 100.602,4.238 101.125,4.238 C101.313,4.238 101.48,4.25 101.629,4.275 L101.629,6.197 L101.629,6.197 Z"></path>
                    <path d="M110.645,8.531 C110.645,8.892 110.62,9.197 110.571,9.445 L104.522,9.445 C104.547,10.341 104.84,11.025 105.401,11.5 C105.911,11.922 106.569,12.135 107.38,12.135 C108.275,12.135 109.091,11.99 109.825,11.705 L110.141,13.105 C109.284,13.478 108.268,13.664 107.098,13.664 C105.692,13.664 104.588,13.252 103.786,12.424 C102.984,11.596 102.581,10.485 102.581,9.092 C102.581,7.723 102.954,6.584 103.702,5.676 C104.485,4.705 105.544,4.219 106.876,4.219 C108.183,4.219 109.171,4.705 109.843,5.676 C110.377,6.447 110.645,7.398 110.645,8.531 L110.645,8.531 Z M108.723,8.008 C108.735,7.41 108.604,6.895 108.33,6.459 C107.982,5.898 107.447,5.619 106.725,5.619 C106.065,5.619 105.53,5.892 105.12,6.439 C104.784,6.877 104.585,7.398 104.522,8.007 L108.723,8.007 L108.723,8.008 Z"></path>
                </g>
            </g>
        </g>
        <text id="Coming-soon-to-the" sketch:type="MSTextLayer" font-family="SF UI Text" font-size="9" font-weight="normal" line-spacing="22" letter-spacing="0.379999995" fill="#FFFFFF">
            <tspan x="43" y="9">Coming soon to th</tspan>
            <tspan x="127.353066" y="9">e</tspan>
        </text>
    </g>
</svg>