<?xml version="1.0" encoding="UTF-8" standalone="no"?>
<svg width="166px" height="40px" viewBox="0 0 166 40" version="1.1" xmlns="http://www.w3.org/2000/svg" xmlns:xlink="http://www.w3.org/1999/xlink" xmlns:sketch="http://www.bohemiancoding.com/sketch/ns">
    <!-- Generator: Sketch 3.4.4 (17249) - http://www.bohemiancoding.com/sketch -->
    <title>Untitled</title>
    <desc>Created with Sketch.</desc>
    <defs></defs>
    <g id="Page-1" stroke="none" stroke-width="1" fill="none" fill-rule="evenodd" sketch:type="MSPage">
        <g id="MAS_Download_165x40" sketch:type="MSLayerGroup">
            <g id="Group" sketch:type="MSShapeGroup">
                <path d="M160.271,39.989 L4.729,39.989 C2.122,39.989 0,37.872 0,35.268 L0,4.727 C0,2.12 2.122,0 4.729,0 L160.271,0 C162.875,0 165,2.12 165,4.727 L165,35.268 C165.001,37.872 162.876,39.989 160.271,39.989 L160.271,39.989 L160.271,39.989 Z" id="Shape" fill="#A6A6A6"></path>
                <path d="M160.271,39.098 L4.729,39.098 C2.61,39.098 0.89,37.384 0.89,35.268 L0.89,4.725 C0.89,2.61 2.61,0.891 4.729,0.891 L160.271,0.891 C162.392,0.891 164.105,2.61 164.105,4.725 L164.105,35.268 C164.105,37.384 162.391,39.098 160.271,39.098 Z" id="Shape" fill="#000000"></path>
                <g transform="translate(12.000000, 6.000000)" id="Shape" fill="#FFFFFF">
                    <path d="M18.497,13.763 C18.467,10.54 21.192,8.971 21.316,8.899 C19.773,6.695 17.381,6.393 16.542,6.37 C14.532,6.164 12.584,7.548 11.561,7.548 C10.518,7.548 8.941,6.391 7.244,6.426 C5.059,6.459 3.014,7.697 1.892,9.621 C-0.422,13.544 1.304,19.311 3.52,22.48 C4.629,24.035 5.925,25.767 7.621,25.706 C9.281,25.64 9.9,24.671 11.904,24.671 C13.888,24.671 14.47,25.706 16.2,25.667 C17.98,25.64 19.103,24.108 20.173,22.54 C21.455,20.76 21.969,19.008 21.99,18.917 C21.948,18.902 18.532,17.627 18.497,13.763 L18.497,13.763 Z"></path>
                    <path d="M15.229,4.285 C16.121,3.191 16.731,1.705 16.562,0.196 C15.27,0.251 13.654,1.07 12.724,2.14 C11.901,3.081 11.166,4.626 11.356,6.078 C12.807,6.184 14.297,5.361 15.229,4.285 L15.229,4.285 Z"></path>
                </g>
                <g transform="translate(42.000000, 18.000000)" id="Shape" fill="#FFFFFF">
                    <path d="M13.653,13.496 L11.693,13.496 L11.431,8.232 C11.306,5.855 11.251,4.087 11.263,2.931 L11.207,2.931 C10.809,4.412 10.317,5.998 9.732,7.691 L7.772,13.384 L6.241,13.384 L4.449,7.784 C3.914,6.091 3.478,4.473 3.142,2.93 L3.104,2.93 C3.042,4.821 2.967,6.62 2.88,8.325 L2.581,13.495 L0.696,13.495 L1.536,0.913 L4.131,0.913 L5.942,6.364 C6.39,7.708 6.782,9.153 7.118,10.696 L7.174,10.696 C7.572,9.091 7.995,7.647 8.443,6.364 L10.329,0.913 L12.924,0.913 L13.653,13.496 L13.653,13.496 Z"></path>
                    <path d="M22.483,13.496 L20.672,13.496 L20.523,12.451 L20.467,12.451 C19.844,13.285 18.961,13.701 17.816,13.701 C16.957,13.701 16.267,13.428 15.744,12.881 C15.271,12.383 15.035,11.768 15.035,11.033 C15.035,9.926 15.498,9.078 16.426,8.494 C17.353,7.908 18.656,7.623 20.337,7.635 L20.337,7.467 C20.337,6.272 19.71,5.676 18.456,5.676 C17.561,5.676 16.773,5.899 16.09,6.348 L15.679,5.022 C16.524,4.499 17.562,4.239 18.792,4.239 C21.165,4.239 22.352,5.489 22.352,7.991 L22.352,11.333 C22.352,12.24 22.396,12.961 22.483,13.496 L22.483,13.496 Z M20.392,10.379 L20.392,8.979 C18.164,8.942 17.051,9.551 17.051,10.809 C17.051,11.282 17.18,11.637 17.441,11.873 C17.701,12.109 18.028,12.227 18.424,12.227 C18.87,12.227 19.281,12.088 19.659,11.807 C20.036,11.528 20.268,11.17 20.355,10.735 C20.379,10.635 20.392,10.516 20.392,10.379 L20.392,10.379 Z"></path>
                    <path d="M30.977,4.666 L30.585,6.197 C30.075,5.949 29.49,5.824 28.83,5.824 C27.946,5.824 27.247,6.119 26.73,6.711 C26.213,7.303 25.956,8.053 25.956,8.961 C25.956,9.918 26.227,10.678 26.768,11.238 C27.309,11.797 27.997,12.078 28.83,12.078 C29.452,12.078 30.062,11.953 30.66,11.705 L30.94,13.217 C30.28,13.528 29.447,13.684 28.439,13.684 C27.058,13.684 25.957,13.264 25.135,12.424 C24.313,11.584 23.903,10.461 23.903,9.055 C23.903,7.649 24.345,6.494 25.229,5.592 C26.112,4.69 27.301,4.238 28.794,4.238 C29.639,4.238 30.367,4.381 30.977,4.666 L30.977,4.666 Z"></path>
                    <path d="M45.872,13.496 L43.726,13.496 L42.549,9.801 L38.462,9.801 L37.342,13.496 L35.25,13.496 L39.301,0.914 L41.802,0.914 L45.872,13.496 L45.872,13.496 Z M42.195,8.252 L41.131,4.965 C41.019,4.629 40.807,3.84 40.496,2.595 L40.458,2.595 C40.333,3.131 40.134,3.92 39.861,4.965 L38.816,8.252 L42.195,8.252 L42.195,8.252 Z"></path>
                    <path d="M56.287,8.848 C56.287,10.393 55.871,11.612 55.037,12.508 C54.291,13.305 53.363,13.701 52.256,13.701 C51.061,13.701 50.203,13.273 49.68,12.414 L49.643,12.414 L49.643,17.193 L47.627,17.193 L47.627,7.41 C47.627,6.439 47.602,5.445 47.551,4.424 L49.324,4.424 L49.437,5.862 L49.474,5.862 C50.146,4.78 51.165,4.239 52.535,4.239 C53.605,4.239 54.498,4.661 55.215,5.509 C55.93,6.354 56.287,7.467 56.287,8.848 L56.287,8.848 Z M54.234,8.924 C54.234,8.039 54.035,7.313 53.636,6.738 C53.2,6.142 52.616,5.843 51.882,5.843 C51.384,5.843 50.933,6.007 50.528,6.337 C50.123,6.667 49.858,7.099 49.735,7.634 C49.673,7.884 49.641,8.089 49.641,8.251 L49.641,9.763 C49.641,10.423 49.842,10.98 50.248,11.433 C50.652,11.888 51.178,12.115 51.824,12.115 C52.584,12.115 53.174,11.822 53.597,11.238 C54.023,10.652 54.234,9.881 54.234,8.924 L54.234,8.924 Z"></path>
                    <path d="M66.723,8.848 C66.723,10.393 66.305,11.612 65.473,12.508 C64.725,13.305 63.799,13.701 62.69,13.701 C61.497,13.701 60.637,13.273 60.116,12.414 L60.077,12.414 L60.077,17.193 L58.061,17.193 L58.061,7.41 C58.061,6.439 58.036,5.445 57.987,4.424 L59.76,4.424 L59.871,5.862 L59.908,5.862 C60.58,4.78 61.601,4.239 62.97,4.239 C64.04,4.239 64.933,4.661 65.648,5.509 C66.365,6.354 66.723,7.467 66.723,8.848 L66.723,8.848 Z M64.67,8.924 C64.67,8.039 64.471,7.313 64.072,6.738 C63.636,6.142 63.051,5.843 62.316,5.843 C61.818,5.843 61.367,6.007 60.962,6.337 C60.557,6.667 60.294,7.099 60.169,7.634 C60.107,7.884 60.075,8.089 60.075,8.251 L60.075,9.763 C60.075,10.423 60.278,10.98 60.682,11.433 C61.086,11.888 61.612,12.115 62.26,12.115 C63.018,12.115 63.61,11.822 64.033,11.238 C64.457,10.652 64.67,9.881 64.67,8.924 L64.67,8.924 Z"></path>
                    <path d="M78.389,9.969 C78.389,11.039 78.016,11.91 77.272,12.582 C76.452,13.316 75.309,13.684 73.844,13.684 C72.49,13.684 71.405,13.422 70.584,12.899 L71.051,11.219 C71.934,11.754 72.906,12.022 73.963,12.022 C74.723,12.022 75.315,11.852 75.738,11.508 C76.161,11.164 76.373,10.707 76.373,10.133 C76.373,9.623 76.199,9.192 75.85,8.844 C75.502,8.494 74.924,8.17 74.114,7.871 C71.913,7.049 70.811,5.846 70.811,4.262 C70.811,3.227 71.196,2.38 71.967,1.72 C72.738,1.059 73.766,0.729 75.047,0.729 C76.193,0.729 77.145,0.928 77.904,1.327 L77.4,2.97 C76.689,2.584 75.886,2.391 74.992,2.391 C74.281,2.391 73.728,2.566 73.33,2.914 C72.994,3.224 72.826,3.605 72.826,4.052 C72.826,4.55 73.019,4.96 73.404,5.284 C73.74,5.583 74.349,5.907 75.234,6.255 C76.316,6.691 77.113,7.2 77.623,7.786 C78.135,8.369 78.389,9.098 78.389,9.969 L78.389,9.969 Z"></path>
                    <path d="M85.053,5.936 L82.83,5.936 L82.83,10.342 C82.83,11.461 83.223,12.022 84.008,12.022 C84.367,12.022 84.666,11.991 84.903,11.928 L84.96,13.459 C84.562,13.609 84.038,13.684 83.392,13.684 C82.595,13.684 81.974,13.442 81.525,12.955 C81.078,12.471 80.853,11.654 80.853,10.51 L80.853,5.936 L79.529,5.936 L79.529,4.424 L80.853,4.424 L80.853,2.763 L82.832,2.165 L82.832,4.423 L85.055,4.423 L85.055,5.936 L85.053,5.936 Z"></path>
                    <path d="M95.076,8.885 C95.076,10.28 94.678,11.424 93.883,12.321 C93.049,13.243 91.942,13.702 90.559,13.702 C89.227,13.702 88.166,13.261 87.377,12.378 C86.586,11.493 86.191,10.38 86.191,9.036 C86.191,7.63 86.597,6.479 87.414,5.583 C88.228,4.687 89.328,4.239 90.709,4.239 C92.041,4.239 93.109,4.68 93.92,5.563 C94.691,6.422 95.076,7.529 95.076,8.885 L95.076,8.885 Z M92.986,8.951 C92.986,8.115 92.804,7.396 92.445,6.799 C92.021,6.074 91.418,5.713 90.634,5.713 C89.823,5.713 89.208,6.074 88.784,6.799 C88.423,7.397 88.243,8.127 88.243,8.988 C88.243,9.824 88.423,10.543 88.784,11.14 C89.22,11.865 89.831,12.226 90.614,12.226 C91.385,12.226 91.989,11.859 92.425,11.122 C92.799,10.512 92.986,9.787 92.986,8.951 L92.986,8.951 Z"></path>
                    <path d="M101.629,6.197 C101.43,6.16 101.219,6.142 100.994,6.142 C100.285,6.142 99.736,6.41 99.351,6.943 C99.015,7.418 98.847,8.015 98.847,8.736 L98.847,13.496 L96.831,13.496 L96.849,7.281 C96.849,6.234 96.824,5.283 96.775,4.424 L98.529,4.424 L98.605,6.16 L98.66,6.16 C98.873,5.562 99.209,5.084 99.668,4.722 C100.117,4.4 100.602,4.238 101.125,4.238 C101.313,4.238 101.48,4.25 101.629,4.275 L101.629,6.197 L101.629,6.197 Z"></path>
                    <path d="M110.645,8.531 C110.645,8.892 110.62,9.197 110.571,9.445 L104.522,9.445 C104.547,10.341 104.84,11.025 105.401,11.5 C105.911,11.922 106.569,12.135 107.38,12.135 C108.275,12.135 109.091,11.99 109.825,11.705 L110.141,13.105 C109.284,13.478 108.268,13.664 107.098,13.664 C105.692,13.664 104.588,13.252 103.786,12.424 C102.984,11.596 102.581,10.485 102.581,9.092 C102.581,7.723 102.954,6.584 103.702,5.676 C104.485,4.705 105.544,4.219 106.876,4.219 C108.183,4.219 109.171,4.705 109.843,5.676 C110.377,6.447 110.645,7.398 110.645,8.531 L110.645,8.531 Z M108.723,8.008 C108.735,7.41 108.604,6.895 108.33,6.459 C107.982,5.898 107.447,5.619 106.725,5.619 C106.065,5.619 105.53,5.892 105.12,6.439 C104.784,6.877 104.585,7.398 104.522,8.007 L108.723,8.007 L108.723,8.008 Z"></path>
                </g>
                <path d="M46.3969727,13.1538086 C47.8120117,13.1538086 48.8535156,12.3188477 49.0292969,11.0664062 L48.0493164,11.0664062 C47.8735352,11.7827148 47.2363281,12.2353516 46.3969727,12.2353516 C45.2543945,12.2353516 44.5424805,11.3081055 44.5424805,9.83154297 C44.5424805,8.35058594 45.2543945,7.42333984 46.3925781,7.42333984 C47.2275391,7.42333984 47.8647461,7.92431641 48.0493164,8.70214844 L49.0292969,8.70214844 C48.8710938,7.41015625 47.7900391,6.50488281 46.3925781,6.50488281 C44.6303711,6.50488281 43.5361328,7.77490234 43.5361328,9.83154297 C43.5361328,11.8837891 44.6347656,13.1538086 46.3969727,13.1538086 L46.3969727,13.1538086 Z M52.5129102,12.2529297 C51.6911328,12.2529297 51.229707,11.6508789 51.229707,10.6049805 C51.229707,9.56787109 51.6911328,8.96142578 52.5129102,8.96142578 C53.330293,8.96142578 53.7961133,9.56787109 53.7961133,10.6049805 C53.7961133,11.6464844 53.330293,12.2529297 52.5129102,12.2529297 L52.5129102,12.2529297 Z M52.5129102,13.0922852 C53.9103711,13.0922852 54.7673047,12.15625 54.7673047,10.6049805 C54.7673047,9.0625 53.9059766,8.12207031 52.5129102,8.12207031 C51.1154492,8.12207031 50.2541211,9.0625 50.2541211,10.6049805 C50.2541211,12.15625 51.1110547,13.0922852 52.5129102,13.0922852 L52.5129102,13.0922852 Z M56.1810938,13 L57.125918,13 L57.125918,10.0732422 C57.125918,9.45800781 57.5609766,8.98779297 58.1366602,8.98779297 C58.6991602,8.98779297 59.0595117,9.31738281 59.0595117,9.85791016 L59.0595117,13 L59.9867578,13 L59.9867578,9.98974609 C59.9867578,9.42724609 60.3866602,8.98779297 60.9975,8.98779297 C61.6171289,8.98779297 61.9247461,9.30419922 61.9247461,9.95019531 L61.9247461,13 L62.8695703,13 L62.8695703,9.70410156 C62.8695703,8.70654297 62.3070703,8.12207031 61.3402734,8.12207031 C60.6766992,8.12207031 60.1273828,8.46044922 59.8856836,8.98339844 L59.8109766,8.98339844 C59.6000391,8.46044922 59.1474023,8.12207031 58.4926172,8.12207031 C57.8554102,8.12207031 57.3720117,8.44287109 57.1610742,8.98339844 L57.0907617,8.98339844 L57.0907617,8.21435547 L56.1810938,8.21435547 L56.1810938,13 Z M64.4942969,13 L65.4347266,13 L65.4347266,8.21435547 L64.4942969,8.21435547 L64.4942969,13 Z M64.9645117,7.375 C65.3160742,7.375 65.5753516,7.12451172 65.5753516,6.79931641 C65.5753516,6.46972656 65.3160742,6.21923828 64.9645117,6.21923828 C64.6129492,6.21923828 64.3536719,6.46972656 64.3536719,6.79931641 C64.3536719,7.12451172 64.6129492,7.375 64.9645117,7.375 L64.9645117,7.375 Z M67.1033984,13 L68.0482227,13 L68.0482227,10.2006836 C68.0482227,9.45361328 68.4920703,8.98779297 69.1908008,8.98779297 C69.8895313,8.98779297 70.2235156,9.37011719 70.2235156,10.1391602 L70.2235156,13 L71.1683398,13 L71.1683398,9.90185547 C71.1683398,8.76367188 70.5794727,8.12207031 69.5116016,8.12207031 C68.7908984,8.12207031 68.3162891,8.44287109 68.0833789,8.97460938 L68.0130664,8.97460938 L68.0130664,8.21435547 L67.1033984,8.21435547 L67.1033984,13 Z M76.0757813,10.5478516 C76.0757813,11.5058594 75.5879883,12.1123047 74.7793945,12.1123047 C73.9664063,12.1123047 73.509375,11.5014648 73.509375,10.5478516 C73.509375,9.59423828 73.9664063,8.98339844 74.7793945,8.98339844 C75.5835938,8.98339844 76.0757813,9.59423828 76.0757813,10.5478516 L76.0757813,10.5478516 Z M74.7925781,14.828125 C76.1460938,14.828125 77.0030273,14.1337891 77.0030273,13.0395508 L77.0030273,8.21435547 L76.0977539,8.21435547 L76.0977539,8.97900391 L76.0230469,8.97900391 C75.7549805,8.46044922 75.1792969,8.13525391 74.5201172,8.13525391 C73.2984375,8.13525391 72.5337891,9.09326172 72.5337891,10.5522461 C72.5337891,11.9848633 73.2896484,12.9296875 74.5113281,12.9296875 C75.1705078,12.9296875 75.6978516,12.644043 75.9878906,12.1254883 L76.0582031,12.1254883 L76.0582031,13.0439453 C76.0582031,13.6767578 75.5923828,14.050293 74.8057617,14.050293 C74.1685547,14.050293 73.7686523,13.8261719 73.6895508,13.4790039 L72.7227539,13.4790039 C72.8238281,14.2919922 73.5972656,14.828125 74.7925781,14.828125 L74.7925781,14.828125 Z M81.2851953,9.56787109 C81.2851953,10.2797852 81.7070703,10.6884766 82.6167383,10.9038086 L83.4516992,11.097168 C83.9307031,11.2114258 84.1548242,11.3959961 84.1548242,11.6816406 C84.1548242,12.0639648 83.7373438,12.3276367 83.1484766,12.3276367 C82.5771875,12.3276367 82.225625,12.0991211 82.1069727,11.7299805 L81.1621484,11.7299805 C81.2456445,12.578125 81.9883203,13.0922852 83.1265039,13.0922852 C84.269082,13.0922852 85.1084375,12.4902344 85.1084375,11.5893555 C85.1084375,10.8862305 84.682168,10.4951172 83.7725,10.2841797 L82.9770899,10.0996094 C82.4585352,9.98095703 82.2168359,9.80078125 82.2168359,9.51513672 C82.2168359,9.14160156 82.6167383,8.89111328 83.144082,8.89111328 C83.6802149,8.89111328 84.0229883,9.11523438 84.1108789,9.46679688 L85.0161524,9.46679688 C84.9238672,8.62304688 84.2207422,8.12207031 83.144082,8.12207031 C82.0630274,8.12207031 81.2851953,8.71972656 81.2851953,9.56787109 L81.2851953,9.56787109 Z M88.5481055,12.2529297 C87.7263281,12.2529297 87.2649024,11.6508789 87.2649024,10.6049805 C87.2649024,9.56787109 87.7263281,8.96142578 88.5481055,8.96142578 C89.3654883,8.96142578 89.8313086,9.56787109 89.8313086,10.6049805 C89.8313086,11.6464844 89.3654883,12.2529297 88.5481055,12.2529297 L88.5481055,12.2529297 Z M88.5481055,13.0922852 C89.9455664,13.0922852 90.8025,12.15625 90.8025,10.6049805 C90.8025,9.0625 89.9411719,8.12207031 88.5481055,8.12207031 C87.1506445,8.12207031 86.2893164,9.0625 86.2893164,10.6049805 C86.2893164,12.15625 87.14625,13.0922852 88.5481055,13.0922852 L88.5481055,13.0922852 Z M94.2377734,12.2529297 C93.4159961,12.2529297 92.9545703,11.6508789 92.9545703,10.6049805 C92.9545703,9.56787109 93.4159961,8.96142578 94.2377734,8.96142578 C95.0551563,8.96142578 95.5209766,9.56787109 95.5209766,10.6049805 C95.5209766,11.6464844 95.0551563,12.2529297 94.2377734,12.2529297 L94.2377734,12.2529297 Z M94.2377734,13.0922852 C95.6352344,13.0922852 96.492168,12.15625 96.492168,10.6049805 C96.492168,9.0625 95.6308399,8.12207031 94.2377734,8.12207031 C92.8403125,8.12207031 91.9789844,9.0625 91.9789844,10.6049805 C91.9789844,12.15625 92.835918,13.0922852 94.2377734,13.0922852 L94.2377734,13.0922852 Z M97.905957,13 L98.8507813,13 L98.8507813,10.2006836 C98.8507813,9.45361328 99.2946289,8.98779297 99.9933594,8.98779297 C100.69209,8.98779297 101.026074,9.37011719 101.026074,10.1391602 L101.026074,13 L101.970898,13 L101.970898,9.90185547 C101.970898,8.76367188 101.382031,8.12207031 100.31416,8.12207031 C99.593457,8.12207031 99.1188477,8.44287109 98.8859375,8.97460938 L98.815625,8.97460938 L98.815625,8.21435547 L97.905957,8.21435547 L97.905957,13 Z M106.652969,7.0234375 L106.652969,8.23632812 L105.892715,8.23632812 L105.892715,9.03173828 L106.652969,9.03173828 L106.652969,11.734375 C106.652969,12.6572266 107.070449,13.0263672 108.120742,13.0263672 C108.305313,13.0263672 108.481094,13.0043945 108.634902,12.9780273 L108.634902,12.1914062 C108.503066,12.2045898 108.41957,12.2133789 108.274551,12.2133789 C107.804336,12.2133789 107.597793,11.9936523 107.597793,11.4926758 L107.597793,9.03173828 L108.634902,9.03173828 L108.634902,8.23632812 L107.597793,8.23632812 L107.597793,7.0234375 L106.652969,7.0234375 Z M111.995469,12.2529297 C111.173691,12.2529297 110.712266,11.6508789 110.712266,10.6049805 C110.712266,9.56787109 111.173691,8.96142578 111.995469,8.96142578 C112.812852,8.96142578 113.278672,9.56787109 113.278672,10.6049805 C113.278672,11.6464844 112.812852,12.2529297 111.995469,12.2529297 L111.995469,12.2529297 Z M111.995469,13.0922852 C113.39293,13.0922852 114.249863,12.15625 114.249863,10.6049805 C114.249863,9.0625 113.388535,8.12207031 111.995469,8.12207031 C110.598008,8.12207031 109.73668,9.0625 109.73668,10.6049805 C109.73668,12.15625 110.593613,13.0922852 111.995469,13.0922852 L111.995469,13.0922852 Z M118.738574,7.0234375 L118.738574,8.23632812 L117.97832,8.23632812 L117.97832,9.03173828 L118.738574,9.03173828 L118.738574,11.734375 C118.738574,12.6572266 119.156055,13.0263672 120.206348,13.0263672 C120.390918,13.0263672 120.566699,13.0043945 120.720508,12.9780273 L120.720508,12.1914062 C120.588672,12.2045898 120.505176,12.2133789 120.360156,12.2133789 C119.889941,12.2133789 119.683398,11.9936523 119.683398,11.4926758 L119.683398,9.03173828 L120.720508,9.03173828 L120.720508,8.23632812 L119.683398,8.23632812 L119.683398,7.0234375 L118.738574,7.0234375 Z M122.15627,13 L123.101094,13 L123.101094,10.2050781 C123.101094,9.47998047 123.531758,8.9921875 124.305195,8.9921875 C124.973164,8.9921875 125.329121,9.37890625 125.329121,10.1435547 L125.329121,13 L126.273945,13 L126.273945,9.91064453 C126.273945,8.77246094 125.645527,8.12646484 124.625996,8.12646484 C123.905293,8.12646484 123.399922,8.44726562 123.167012,8.98339844 L123.092305,8.98339844 L123.092305,6.34667969 L122.15627,6.34667969 L122.15627,13 Z M129.845449,8.92626953 C130.54418,8.92626953 131.001211,9.4140625 131.023184,10.1655273 L128.606191,10.1655273 C128.658926,9.41845703 129.146719,8.92626953 129.845449,8.92626953 L129.845449,8.92626953 Z M131.018789,11.7080078 C130.843008,12.081543 130.451895,12.2880859 129.880605,12.2880859 C129.124746,12.2880859 128.636953,11.7563477 128.606191,10.9169922 L128.606191,10.8642578 L131.985586,10.8642578 L131.985586,10.534668 C131.985586,9.03173828 131.181387,8.12207031 129.849844,8.12207031 C128.500723,8.12207031 127.643789,9.09326172 127.643789,10.6225586 C127.643789,12.1518555 128.483145,13.0922852 129.854238,13.0922852 C130.948477,13.0922852 131.713125,12.5649414 131.928457,11.7080078 L131.018789,11.7080078 Z" id="Coming-soon-to-the" fill="#FFFFFF"></path>
            </g>
        </g>
    </g>
</svg>